<?xml version="1.0" encoding="UTF-8"?>
<svg id="Layer_1" xmlns="http://www.w3.org/2000/svg" version="1.1" viewBox="0 0 512 512">
  <!-- Generator: Adobe Illustrator 29.7.1, SVG Export Plug-In . SVG Version: 2.1.1 Build 8)  -->
  <defs>
    <style>
      .st0 {
        fill: #eb4d25;
      }

      .st1 {
        fill: #101010;
      }
    </style>
  </defs>
  <path class="st1" d="M235.74,212.97c-1.2-1.22,6.66-17.1,8.02-19.57,61.07-111.39,230.29-76.48,242.02,52.74,12.1,133.37-165.55,192.16-237.33,80.89-5.15-7.98-10.41-18.35-12.71-27.45h41.56c12.57,21.5,32.05,37.7,56.37,44.2,79.55,21.25,143.45-65.85,100.3-135.92-36.22-58.82-124.25-55.21-156.67,5.11h-41.56Z"/>
  <path class="st0" d="M250.72,168.68c.54.78,1.98.34.71,3.06-8.21,10.4-14.86,21.98-19.89,34.25-7.26-8.23-13.41-16.08-22.4-22.64-53.31-38.88-130.67-9.43-142.9,55.33-12.97,68.7,52.16,125.69,118.66,103.29,19.58-6.59,34.09-19.38,46.64-35.41,4.67,12.89,12.38,24.21,20.27,35.28-11.3,14.59-28.42,26.22-45.43,33.49-68.19,29.15-147.12-4.77-172.5-74C-4.98,195.28,100.25,93.51,204.66,136.14c13.59,5.55,37.72,20.5,46.06,32.53Z"/>
  <path class="st1" d="M307.23,303.52c-30.91-31.98-22.32-87.39,17.2-107.68,42.86-22.01,93.56,4.11,99.8,51.79,8.46,64.65-71.51,102.94-117,55.89Z"/>
  <path class="st0" d="M148.98,188.02c51.12-4.8,88.51,47.56,68.93,94.77-20.76,50.04-90.06,56.24-119.78,10.87-28.26-43.14-.18-100.84,50.85-105.64Z"/>
</svg>